<svg width="291" height="291" viewBox="0 0 291 291" fill="none" xmlns="http://www.w3.org/2000/svg">
<path d="M-9.8252 41.0034L31.1782 0M31.1782 41.0034C15.1654 24.9906 6.18764 16.0128 -9.8252 0" stroke="#989898" stroke-width="3" stroke-linecap="round" stroke-dasharray="6 6"/>
<path d="M-9.8252 154.073L31.1782 113.07M31.1782 154.073C15.1654 138.06 6.18764 129.083 -9.8252 113.07" stroke="#989898" stroke-width="3" stroke-linecap="round" stroke-dasharray="6 6"/>
<path d="M-9.8252 267.144L31.1782 226.141M31.1782 267.144C15.1654 251.131 6.18764 242.153 -9.8252 226.141" stroke="#989898" stroke-width="3" stroke-linecap="round" stroke-dasharray="6 6"/>
<path d="M-30.9478 98.1597L10.0557 57.1562M10.0557 98.1597C-5.95715 82.1469 -14.9349 73.1691 -30.9478 57.1562" stroke="#989898" stroke-width="3" stroke-linecap="round" stroke-dasharray="6 6"/>
<path d="M-30.9478 211.23L10.0557 170.226M10.0557 211.23C-5.95715 195.217 -14.9349 186.239 -30.9478 170.226" stroke="#989898" stroke-width="3" stroke-linecap="round" stroke-dasharray="6 6"/>
<path d="M-30.9478 324.3L10.0557 283.297M10.0557 324.3C-5.95715 308.287 -14.9349 299.31 -30.9478 283.297" stroke="#989898" stroke-width="3" stroke-linecap="round" stroke-dasharray="6 6"/>
<path d="M49.8169 41.0034L90.8203 0M90.8203 41.0034C74.8075 24.9906 65.8297 16.0128 49.8169 0" stroke="#989898" stroke-width="3" stroke-linecap="round" stroke-dasharray="6 6"/>
<path d="M49.8169 154.073L90.8203 113.07M90.8203 154.073C74.8075 138.06 65.8297 129.083 49.8169 113.07" stroke="#989898" stroke-width="3" stroke-linecap="round" stroke-dasharray="6 6"/>
<path d="M49.8169 267.144L90.8203 226.141M90.8203 267.144C74.8075 251.131 65.8297 242.153 49.8169 226.141" stroke="#989898" stroke-width="3" stroke-linecap="round" stroke-dasharray="6 6"/>
<path d="M28.6929 98.1597L69.6963 57.1562M69.6963 98.1597C53.6835 82.1469 44.7057 73.1691 28.6929 57.1562" stroke="#989898" stroke-width="3" stroke-linecap="round" stroke-dasharray="6 6"/>
<path d="M28.6929 211.23L69.6963 170.226M69.6963 211.23C53.6835 195.217 44.7057 186.239 28.6929 170.226" stroke="#989898" stroke-width="3" stroke-linecap="round" stroke-dasharray="6 6"/>
<path d="M28.6929 324.3L69.6963 283.297M69.6963 324.3C53.6835 308.287 44.7057 299.31 28.6929 283.297" stroke="#989898" stroke-width="3" stroke-linecap="round" stroke-dasharray="6 6"/>
<path d="M109.458 41.0034L150.461 0M150.461 41.0034C134.448 24.9906 125.47 16.0128 109.458 0" stroke="#989898" stroke-width="3" stroke-linecap="round" stroke-dasharray="6 6"/>
<path d="M109.458 154.073L150.461 113.07M150.461 154.073C134.448 138.06 125.47 129.083 109.458 113.07" stroke="#989898" stroke-width="3" stroke-linecap="round" stroke-dasharray="6 6"/>
<path d="M109.458 267.144L150.461 226.141M150.461 267.144C134.448 251.131 125.47 242.153 109.458 226.141" stroke="#989898" stroke-width="3" stroke-linecap="round" stroke-dasharray="6 6"/>
<path d="M88.335 98.1597L129.338 57.1562M129.338 98.1597C113.326 82.1469 104.348 73.1691 88.335 57.1562" stroke="#989898" stroke-width="3" stroke-linecap="round" stroke-dasharray="6 6"/>
<path d="M88.335 211.23L129.338 170.226M129.338 211.23C113.326 195.217 104.348 186.239 88.335 170.226" stroke="#989898" stroke-width="3" stroke-linecap="round" stroke-dasharray="6 6"/>
<path d="M88.335 324.3L129.338 283.297M129.338 324.3C113.326 308.287 104.348 299.31 88.335 283.297" stroke="#989898" stroke-width="3" stroke-linecap="round" stroke-dasharray="6 6"/>
<path d="M169.099 41.0034L210.103 0M210.103 41.0034C194.09 24.9906 185.112 16.0128 169.099 0" stroke="#989898" stroke-width="3" stroke-linecap="round" stroke-dasharray="6 6"/>
<path d="M169.099 154.073L210.103 113.07M210.103 154.073C194.09 138.06 185.112 129.083 169.099 113.07" stroke="#989898" stroke-width="3" stroke-linecap="round" stroke-dasharray="6 6"/>
<path d="M169.099 267.144L210.103 226.141M210.103 267.144C194.09 251.131 185.112 242.153 169.099 226.141" stroke="#989898" stroke-width="3" stroke-linecap="round" stroke-dasharray="6 6"/>
<path d="M147.977 98.1597L188.98 57.1562M188.98 98.1597C172.967 82.1469 163.989 73.1691 147.977 57.1562" stroke="#989898" stroke-width="3" stroke-linecap="round" stroke-dasharray="6 6"/>
<path d="M147.977 211.23L188.98 170.226M188.98 211.23C172.967 195.217 163.989 186.239 147.977 170.226" stroke="#989898" stroke-width="3" stroke-linecap="round" stroke-dasharray="6 6"/>
<path d="M147.977 324.3L188.98 283.297M188.98 324.3C172.967 308.287 163.989 299.31 147.977 283.297" stroke="#989898" stroke-width="3" stroke-linecap="round" stroke-dasharray="6 6"/>
<path d="M228.741 41.0034L269.745 0M269.745 41.0034C253.732 24.9906 244.754 16.0128 228.741 0" stroke="#989898" stroke-width="3" stroke-linecap="round" stroke-dasharray="6 6"/>
<path d="M228.741 154.073L269.745 113.07M269.745 154.073C253.732 138.06 244.754 129.083 228.741 113.07" stroke="#989898" stroke-width="3" stroke-linecap="round" stroke-dasharray="6 6"/>
<path d="M228.741 267.144L269.745 226.141M269.745 267.144C253.732 251.131 244.754 242.153 228.741 226.141" stroke="#989898" stroke-width="3" stroke-linecap="round" stroke-dasharray="6 6"/>
<path d="M207.617 98.1597L248.621 57.1562M248.621 98.1597C232.608 82.1469 223.63 73.1691 207.617 57.1562" stroke="#989898" stroke-width="3" stroke-linecap="round" stroke-dasharray="6 6"/>
<path d="M207.617 211.23L248.621 170.226M248.621 211.23C232.608 195.217 223.63 186.239 207.617 170.226" stroke="#989898" stroke-width="3" stroke-linecap="round" stroke-dasharray="6 6"/>
<path d="M207.617 324.3L248.621 283.297M248.621 324.3C232.608 308.287 223.63 299.31 207.617 283.297" stroke="#989898" stroke-width="3" stroke-linecap="round" stroke-dasharray="6 6"/>
<path d="M288.382 41.0034L329.386 0M329.386 41.0034C313.373 24.9906 304.395 16.0128 288.382 0" stroke="#989898" stroke-width="3" stroke-linecap="round" stroke-dasharray="6 6"/>
<path d="M288.382 154.073L329.386 113.07M329.386 154.073C313.373 138.06 304.395 129.083 288.382 113.07" stroke="#989898" stroke-width="3" stroke-linecap="round" stroke-dasharray="6 6"/>
<path d="M288.382 267.144L329.386 226.141M329.386 267.144C313.373 251.131 304.395 242.153 288.382 226.141" stroke="#989898" stroke-width="3" stroke-linecap="round" stroke-dasharray="6 6"/>
<path d="M267.259 98.1597L308.263 57.1562M308.263 98.1597C292.25 82.1469 283.272 73.1691 267.259 57.1562" stroke="#989898" stroke-width="3" stroke-linecap="round" stroke-dasharray="6 6"/>
<path d="M267.259 211.23L308.263 170.226M308.263 211.23C292.25 195.217 283.272 186.239 267.259 170.226" stroke="#989898" stroke-width="3" stroke-linecap="round" stroke-dasharray="6 6"/>
<path d="M267.259 324.3L308.263 283.297M308.263 324.3C292.25 308.287 283.272 299.31 267.259 283.297" stroke="#989898" stroke-width="3" stroke-linecap="round" stroke-dasharray="6 6"/>
</svg>
